<svg xmlns="http://www.w3.org/2000/svg" shape-rendering="geometricPrecision" text-rendering="geometricPrecision" image-rendering="optimizeQuality" fill-rule="evenodd" clip-rule="evenodd" viewBox="0 0 493 511.92"><path fill-rule="nonzero" d="M277.16 41.75c49.87 6.77 94.55 29.88 128.47 63.79 40.67 40.67 65.83 96.87 65.83 158.93 0 62.08-25.15 118.28-65.83 158.96a227.22 227.22 0 0 1-25.34 21.83l27.24 38.33c5.68 8.18 3.65 19.42-4.54 25.11-8.19 5.68-19.44 3.65-25.12-4.54l-28.28-39.78c-30.84 15.91-65.83 24.89-102.92 24.89-37.7 0-73.23-9.28-104.43-25.69l-26.59 39.71c-5.54 8.28-16.76 10.5-25.04 4.95-8.29-5.54-10.5-16.75-4.95-25.03l26.07-38.95a225.636 225.636 0 0 1-24-20.83c-40.68-40.68-65.84-96.89-65.84-158.96 0-62.07 25.16-118.26 65.84-158.94 36.44-36.43 85.34-60.39 139.74-65.03 16.45-1.4 33.38-.96 49.69 1.25zm204.53 102.98c17.3-41.28 15.24-84.52-9.51-113.49-29.7-34.77-83.39-38.75-133.26-14.3 53.01 36.36 101.12 78.78 142.77 127.79zm-470.15 1.35C-6.1 104.02-4.01 59.97 21.21 30.45 51.47-4.97 106.18-9.03 156.99 15.88c-54 37.06-103.03 80.26-145.45 130.2zm269.3 101.47 67.65-1.18c9.97-.17 18.19 7.76 18.36 17.73.18 9.97-7.76 18.19-17.73 18.37l-69.51 1.21c-6.61 11.32-18.89 18.93-32.94 18.93-21.05 0-38.12-17.08-38.12-38.13 0-14.52 8.13-27.15 20.08-33.58v-87.35c0-9.97 8.07-18.05 18.04-18.05 9.97 0 18.06 8.08 18.06 18.05v87.35a38.324 38.324 0 0 1 16.11 16.65zm99.27-116.5c-34.14-34.14-81.32-55.26-133.43-55.26-52.1 0-99.28 21.12-133.42 55.26-34.15 34.14-55.27 81.32-55.27 133.43 0 52.11 21.12 99.28 55.27 133.43 34.14 34.14 81.31 55.26 133.41 55.26 52.12 0 99.29-21.12 133.43-55.26 34.14-34.15 55.28-81.32 55.28-133.44 0-52.1-21.13-99.27-55.27-133.42z"/></svg>